<svg width="459" height="371" viewBox="0 0 459 371" fill="none" xmlns="http://www.w3.org/2000/svg">
<g filter="url(#filter0_d_231_174)">
<path d="M257.306 125.006C251.312 125.339 239.399 126.552 232.045 130.962C231.537 131.266 231.249 131.807 231.249 132.373V171.359C231.249 172.596 232.631 173.378 233.796 172.804C241.362 169.073 252.306 168.056 257.717 167.777C259.564 167.682 261 166.231 261 164.492V128.295C261.001 126.398 259.321 124.894 257.306 125.006ZM226.955 130.962C219.602 126.552 207.689 125.34 201.695 125.006C199.68 124.894 198 126.398 198 128.295V164.493C198 166.233 199.436 167.684 201.283 167.778C206.697 168.057 217.645 169.076 225.212 172.808C226.373 173.382 227.751 172.601 227.751 171.366V132.354C227.751 131.787 227.464 131.267 226.955 130.962Z" fill="#B3B3D1"/>
<path d="M257.306 125.006C251.312 125.339 239.399 126.552 232.045 130.962C231.537 131.266 231.249 131.807 231.249 132.373V171.359C231.249 172.596 232.631 173.378 233.796 172.804C241.362 169.073 252.306 168.056 257.717 167.777C259.564 167.682 261 166.231 261 164.492V128.295C261.001 126.398 259.321 124.894 257.306 125.006ZM226.955 130.962C219.602 126.552 207.689 125.34 201.695 125.006C199.68 124.894 198 126.398 198 128.295V164.493C198 166.233 199.436 167.684 201.283 167.778C206.697 168.057 217.645 169.076 225.212 172.808C226.373 173.382 227.751 172.601 227.751 171.366V132.354C227.751 131.787 227.464 131.267 226.955 130.962Z" stroke="black"/>
</g>
<defs>
<filter id="filter0_d_231_174" x="0.600006" y="-72.4" width="457.8" height="442.8" filterUnits="userSpaceOnUse" color-interpolation-filters="sRGB">
<feFlood flood-opacity="0" result="BackgroundImageFix"/>
<feColorMatrix in="SourceAlpha" type="matrix" values="0 0 0 0 0 0 0 0 0 0 0 0 0 0 0 0 0 0 127 0" result="hardAlpha"/>
<feOffset/>
<feGaussianBlur stdDeviation="98.7"/>
<feComposite in2="hardAlpha" operator="out"/>
<feColorMatrix type="matrix" values="0 0 0 0 0.831373 0 0 0 0 0.831373 0 0 0 0 0.831373 0 0 0 0.23 0"/>
<feBlend mode="normal" in2="BackgroundImageFix" result="effect1_dropShadow_231_174"/>
<feBlend mode="normal" in="SourceGraphic" in2="effect1_dropShadow_231_174" result="shape"/>
</filter>
</defs>
</svg>
